<svg xmlns="http://www.w3.org/2000/svg" width="180" height="52" viewBox="0 0 180 52" role="img" aria-label="Huawei logo">
  <rect width="180" height="52" rx="10" fill="#ffffff"/>
  <g fill="#d61f26" transform="translate(30 8)">
    <path d="M20 2c-2 8-2 14 0 20 2-6 2-12 0-20z"/>
    <path d="M14 4c-3 8-3 13-1 20 3-6 4-12 1-20z"/>
    <path d="M26 4c-2 8-2 14 1 20 2-7 2-12-1-20z"/>
    <path d="M8 8c-3 7-2 12 0 18 2-5 3-10 0-18z"/>
    <path d="M32 8c-2 8-2 13 0 18 3-6 3-11 0-18z"/>
  </g>
  <text x="72" y="33" font-family="Arial, Helvetica, sans-serif" font-size="20" font-weight="700" fill="#d61f26" letter-spacing="1">HUAWEI</text>
</svg>
